<mxfile host="drawio-plugin" modified="2022-11-09T13:28:14.042Z" agent="5.0 (Windows NT 6.2; Win64; x64) AppleWebKit/537.36 (KHTML, like Gecko) Chrome/98.0.4758.102 Safari/537.36" etag="m_EXGjvw1njL46kEzW7c" version="15.5.4" type="embed"><diagram id="C5RBs43oDa-KdzZeNtuy" name="Page-1"><mxGraphModel dx="1998" dy="754" grid="1" gridSize="10" guides="1" tooltips="1" connect="1" arrows="1" fold="1" page="1" pageScale="1" pageWidth="827" pageHeight="1169" background="none" math="0" shadow="0"><root><mxCell id="WIyWlLk6GJQsqaUBKTNV-0"/><mxCell id="WIyWlLk6GJQsqaUBKTNV-1" parent="WIyWlLk6GJQsqaUBKTNV-0"/><mxCell id="zkfFHV4jXpPFQw0GAbJ--0" value="Transaction" style="swimlane;fontStyle=2;align=center;verticalAlign=top;childLayout=stackLayout;horizontal=1;startSize=26;horizontalStack=0;resizeParent=1;resizeLast=0;collapsible=1;marginBottom=0;rounded=0;shadow=0;strokeWidth=1;" parent="WIyWlLk6GJQsqaUBKTNV-1" vertex="1"><mxGeometry x="150" width="410" height="350" as="geometry"><mxRectangle x="150" width="160" height="26" as="alternateBounds"/></mxGeometry></mxCell><mxCell id="zkfFHV4jXpPFQw0GAbJ--1" value="# amount : double   &#10;&#10;" style="text;align=left;verticalAlign=top;spacingLeft=4;spacingRight=4;overflow=hidden;rotatable=0;points=[[0,0.5],[1,0.5]];portConstraint=eastwest;" parent="zkfFHV4jXpPFQw0GAbJ--0" vertex="1"><mxGeometry y="26" width="410" height="26" as="geometry"/></mxCell><mxCell id="zkfFHV4jXpPFQw0GAbJ--2" value="# description : String" style="text;align=left;verticalAlign=top;spacingLeft=4;spacingRight=4;overflow=hidden;rotatable=0;points=[[0,0.5],[1,0.5]];portConstraint=eastwest;rounded=0;shadow=0;html=0;" parent="zkfFHV4jXpPFQw0GAbJ--0" vertex="1"><mxGeometry y="52" width="410" height="26" as="geometry"/></mxCell><mxCell id="zkfFHV4jXpPFQw0GAbJ--3" value="# date : String" style="text;align=left;verticalAlign=top;spacingLeft=4;spacingRight=4;overflow=hidden;rotatable=0;points=[[0,0.5],[1,0.5]];portConstraint=eastwest;rounded=0;shadow=0;html=0;" parent="zkfFHV4jXpPFQw0GAbJ--0" vertex="1"><mxGeometry y="78" width="410" height="26" as="geometry"/></mxCell><mxCell id="zkfFHV4jXpPFQw0GAbJ--4" value="" style="line;html=1;strokeWidth=1;align=left;verticalAlign=middle;spacingTop=-1;spacingLeft=3;spacingRight=3;rotatable=0;labelPosition=right;points=[];portConstraint=eastwest;" parent="zkfFHV4jXpPFQw0GAbJ--0" vertex="1"><mxGeometry y="104" width="410" height="8" as="geometry"/></mxCell><mxCell id="zkfFHV4jXpPFQw0GAbJ--5" value="+ Transaction(date : String, description : String, amount : double)" style="text;align=left;verticalAlign=top;spacingLeft=4;spacingRight=4;overflow=hidden;rotatable=0;points=[[0,0.5],[1,0.5]];portConstraint=eastwest;" parent="zkfFHV4jXpPFQw0GAbJ--0" vertex="1"><mxGeometry y="112" width="410" height="28" as="geometry"/></mxCell><mxCell id="xuiZTR2rbnCRRH94C7Y4-8" value="+ toString() : String   " style="text;align=left;verticalAlign=top;spacingLeft=4;spacingRight=4;overflow=hidden;rotatable=0;points=[[0,0.5],[1,0.5]];portConstraint=eastwest;rounded=0;shadow=0;html=0;" parent="zkfFHV4jXpPFQw0GAbJ--0" vertex="1"><mxGeometry y="140" width="410" height="26" as="geometry"/></mxCell><mxCell id="xuiZTR2rbnCRRH94C7Y4-16" value="+ equals(obj : Object) : boolean" style="text;align=left;verticalAlign=top;spacingLeft=4;spacingRight=4;overflow=hidden;rotatable=0;points=[[0,0.5],[1,0.5]];portConstraint=eastwest;rounded=0;shadow=0;html=0;" parent="zkfFHV4jXpPFQw0GAbJ--0" vertex="1"><mxGeometry y="166" width="410" height="26" as="geometry"/></mxCell><mxCell id="xuiZTR2rbnCRRH94C7Y4-17" value="# setDate(date : String) : void" style="text;align=left;verticalAlign=top;spacingLeft=4;spacingRight=4;overflow=hidden;rotatable=0;points=[[0,0.5],[1,0.5]];portConstraint=eastwest;rounded=0;shadow=0;html=0;" parent="zkfFHV4jXpPFQw0GAbJ--0" vertex="1"><mxGeometry y="192" width="410" height="26" as="geometry"/></mxCell><mxCell id="xuiZTR2rbnCRRH94C7Y4-18" value="# getDate() : String" style="text;align=left;verticalAlign=top;spacingLeft=4;spacingRight=4;overflow=hidden;rotatable=0;points=[[0,0.5],[1,0.5]];portConstraint=eastwest;rounded=0;shadow=0;html=0;" parent="zkfFHV4jXpPFQw0GAbJ--0" vertex="1"><mxGeometry y="218" width="410" height="26" as="geometry"/></mxCell><mxCell id="xuiZTR2rbnCRRH94C7Y4-19" value="# setDescription(description : String) : void" style="text;align=left;verticalAlign=top;spacingLeft=4;spacingRight=4;overflow=hidden;rotatable=0;points=[[0,0.5],[1,0.5]];portConstraint=eastwest;rounded=0;shadow=0;html=0;" parent="zkfFHV4jXpPFQw0GAbJ--0" vertex="1"><mxGeometry y="244" width="410" height="26" as="geometry"/></mxCell><mxCell id="xuiZTR2rbnCRRH94C7Y4-20" value="# getDescription() : String" style="text;align=left;verticalAlign=top;spacingLeft=4;spacingRight=4;overflow=hidden;rotatable=0;points=[[0,0.5],[1,0.5]];portConstraint=eastwest;rounded=0;shadow=0;html=0;" parent="zkfFHV4jXpPFQw0GAbJ--0" vertex="1"><mxGeometry y="270" width="410" height="26" as="geometry"/></mxCell><mxCell id="xuiZTR2rbnCRRH94C7Y4-21" value="# setAmount(amount : double) : void" style="text;align=left;verticalAlign=top;spacingLeft=4;spacingRight=4;overflow=hidden;rotatable=0;points=[[0,0.5],[1,0.5]];portConstraint=eastwest;rounded=0;shadow=0;html=0;" parent="zkfFHV4jXpPFQw0GAbJ--0" vertex="1"><mxGeometry y="296" width="410" height="26" as="geometry"/></mxCell><mxCell id="xuiZTR2rbnCRRH94C7Y4-22" value="# getAmount() : double" style="text;align=left;verticalAlign=top;spacingLeft=4;spacingRight=4;overflow=hidden;rotatable=0;points=[[0,0.5],[1,0.5]];portConstraint=eastwest;rounded=0;shadow=0;html=0;" parent="zkfFHV4jXpPFQw0GAbJ--0" vertex="1"><mxGeometry y="322" width="410" height="26" as="geometry"/></mxCell><mxCell id="zkfFHV4jXpPFQw0GAbJ--6" value="Payment" style="swimlane;fontStyle=0;align=center;verticalAlign=top;childLayout=stackLayout;horizontal=1;startSize=26;horizontalStack=0;resizeParent=1;resizeLast=0;collapsible=1;marginBottom=0;rounded=0;shadow=0;strokeWidth=1;" parent="WIyWlLk6GJQsqaUBKTNV-1" vertex="1"><mxGeometry x="-140" y="360" width="620" height="350" as="geometry"><mxRectangle x="130" y="380" width="160" height="26" as="alternateBounds"/></mxGeometry></mxCell><mxCell id="zkfFHV4jXpPFQw0GAbJ--7" value="# outgoingInterest : double" style="text;align=left;verticalAlign=top;spacingLeft=4;spacingRight=4;overflow=hidden;rotatable=0;points=[[0,0.5],[1,0.5]];portConstraint=eastwest;" parent="zkfFHV4jXpPFQw0GAbJ--6" vertex="1"><mxGeometry y="26" width="620" height="26" as="geometry"/></mxCell><mxCell id="zkfFHV4jXpPFQw0GAbJ--8" value="# incomingInterest : double" style="text;align=left;verticalAlign=top;spacingLeft=4;spacingRight=4;overflow=hidden;rotatable=0;points=[[0,0.5],[1,0.5]];portConstraint=eastwest;rounded=0;shadow=0;html=0;" parent="zkfFHV4jXpPFQw0GAbJ--6" vertex="1"><mxGeometry y="52" width="620" height="26" as="geometry"/></mxCell><mxCell id="zkfFHV4jXpPFQw0GAbJ--9" value="" style="line;html=1;strokeWidth=1;align=left;verticalAlign=middle;spacingTop=-1;spacingLeft=3;spacingRight=3;rotatable=0;labelPosition=right;points=[];portConstraint=eastwest;" parent="zkfFHV4jXpPFQw0GAbJ--6" vertex="1"><mxGeometry y="78" width="620" height="8" as="geometry"/></mxCell><mxCell id="zkfFHV4jXpPFQw0GAbJ--10" value="+ Payment(date : String, description : String, amount : double)" style="text;align=left;verticalAlign=top;spacingLeft=4;spacingRight=4;overflow=hidden;rotatable=0;points=[[0,0.5],[1,0.5]];portConstraint=eastwest;fontStyle=0" parent="zkfFHV4jXpPFQw0GAbJ--6" vertex="1"><mxGeometry y="86" width="620" height="26" as="geometry"/></mxCell><mxCell id="zkfFHV4jXpPFQw0GAbJ--11" value="+ Payment(date : String, description : String, amount : double, incomingInterest : double, outgoingInterest : double)" style="text;align=left;verticalAlign=top;spacingLeft=4;spacingRight=4;overflow=hidden;rotatable=0;points=[[0,0.5],[1,0.5]];portConstraint=eastwest;" parent="zkfFHV4jXpPFQw0GAbJ--6" vertex="1"><mxGeometry y="112" width="620" height="26" as="geometry"/></mxCell><mxCell id="xuiZTR2rbnCRRH94C7Y4-44" value="+ Payment(p : Payment)" style="text;align=left;verticalAlign=top;spacingLeft=4;spacingRight=4;overflow=hidden;rotatable=0;points=[[0,0.5],[1,0.5]];portConstraint=eastwest;fontStyle=0" parent="zkfFHV4jXpPFQw0GAbJ--6" vertex="1"><mxGeometry y="138" width="620" height="26" as="geometry"/></mxCell><mxCell id="xuiZTR2rbnCRRH94C7Y4-45" value="+ setIncomingInterest(incomingInterest : double) : void" style="text;align=left;verticalAlign=top;spacingLeft=4;spacingRight=4;overflow=hidden;rotatable=0;points=[[0,0.5],[1,0.5]];portConstraint=eastwest;fontStyle=0" parent="zkfFHV4jXpPFQw0GAbJ--6" vertex="1"><mxGeometry y="164" width="620" height="26" as="geometry"/></mxCell><mxCell id="xuiZTR2rbnCRRH94C7Y4-46" value="+ getIncomingInterest() : double" style="text;align=left;verticalAlign=top;spacingLeft=4;spacingRight=4;overflow=hidden;rotatable=0;points=[[0,0.5],[1,0.5]];portConstraint=eastwest;fontStyle=0" parent="zkfFHV4jXpPFQw0GAbJ--6" vertex="1"><mxGeometry y="190" width="620" height="26" as="geometry"/></mxCell><mxCell id="xuiZTR2rbnCRRH94C7Y4-47" value="+ setOutgoingInterest(outgoingInterest : double) : void" style="text;align=left;verticalAlign=top;spacingLeft=4;spacingRight=4;overflow=hidden;rotatable=0;points=[[0,0.5],[1,0.5]];portConstraint=eastwest;fontStyle=0" parent="zkfFHV4jXpPFQw0GAbJ--6" vertex="1"><mxGeometry y="216" width="620" height="26" as="geometry"/></mxCell><mxCell id="xuiZTR2rbnCRRH94C7Y4-48" value="+ getOutgoingInterest() : double" style="text;align=left;verticalAlign=top;spacingLeft=4;spacingRight=4;overflow=hidden;rotatable=0;points=[[0,0.5],[1,0.5]];portConstraint=eastwest;fontStyle=0" parent="zkfFHV4jXpPFQw0GAbJ--6" vertex="1"><mxGeometry y="242" width="620" height="26" as="geometry"/></mxCell><mxCell id="xuiZTR2rbnCRRH94C7Y4-49" value="+toString() : String" style="text;align=left;verticalAlign=top;spacingLeft=4;spacingRight=4;overflow=hidden;rotatable=0;points=[[0,0.5],[1,0.5]];portConstraint=eastwest;fontStyle=0" parent="zkfFHV4jXpPFQw0GAbJ--6" vertex="1"><mxGeometry y="268" width="620" height="26" as="geometry"/></mxCell><mxCell id="xuiZTR2rbnCRRH94C7Y4-51" value="+ equals(obj : Object) : boolean" style="text;align=left;verticalAlign=top;spacingLeft=4;spacingRight=4;overflow=hidden;rotatable=0;points=[[0,0.5],[1,0.5]];portConstraint=eastwest;fontStyle=0" parent="zkfFHV4jXpPFQw0GAbJ--6" vertex="1"><mxGeometry y="294" width="620" height="26" as="geometry"/></mxCell><mxCell id="xuiZTR2rbnCRRH94C7Y4-52" value="+ calculate() : double" style="text;align=left;verticalAlign=top;spacingLeft=4;spacingRight=4;overflow=hidden;rotatable=0;points=[[0,0.5],[1,0.5]];portConstraint=eastwest;fontStyle=0" parent="zkfFHV4jXpPFQw0GAbJ--6" vertex="1"><mxGeometry y="320" width="620" height="26" as="geometry"/></mxCell><mxCell id="zkfFHV4jXpPFQw0GAbJ--12" value="" style="endArrow=block;endSize=10;endFill=0;shadow=0;strokeWidth=1;rounded=0;edgeStyle=elbowEdgeStyle;elbow=vertical;" parent="WIyWlLk6GJQsqaUBKTNV-1" source="zkfFHV4jXpPFQw0GAbJ--6" target="zkfFHV4jXpPFQw0GAbJ--0" edge="1"><mxGeometry width="160" relative="1" as="geometry"><mxPoint x="200" y="203" as="sourcePoint"/><mxPoint x="200" y="203" as="targetPoint"/><Array as="points"><mxPoint x="50" y="290"/></Array></mxGeometry></mxCell><mxCell id="zkfFHV4jXpPFQw0GAbJ--16" value="" style="endArrow=block;endSize=10;endFill=0;shadow=0;strokeWidth=1;rounded=0;edgeStyle=elbowEdgeStyle;elbow=vertical;exitX=0.5;exitY=0;exitDx=0;exitDy=0;" parent="WIyWlLk6GJQsqaUBKTNV-1" source="xuiZTR2rbnCRRH94C7Y4-0" target="zkfFHV4jXpPFQw0GAbJ--0" edge="1"><mxGeometry width="160" relative="1" as="geometry"><mxPoint x="430" y="360" as="sourcePoint"/><mxPoint x="310" y="271" as="targetPoint"/><Array as="points"><mxPoint x="335" y="300"/><mxPoint x="310" y="290"/><mxPoint x="310" y="290"/></Array></mxGeometry></mxCell><mxCell id="xuiZTR2rbnCRRH94C7Y4-0" value="Transfer" style="swimlane;fontStyle=0;align=center;verticalAlign=top;childLayout=stackLayout;horizontal=1;startSize=30;horizontalStack=0;resizeParent=1;resizeLast=0;collapsible=1;marginBottom=0;rounded=0;shadow=0;strokeWidth=1;" parent="WIyWlLk6GJQsqaUBKTNV-1" vertex="1"><mxGeometry x="560" y="360" width="520" height="350" as="geometry"><mxRectangle x="130" y="380" width="160" height="26" as="alternateBounds"/></mxGeometry></mxCell><mxCell id="xuiZTR2rbnCRRH94C7Y4-2" value="# sender : String" style="text;align=left;verticalAlign=top;spacingLeft=4;spacingRight=4;overflow=hidden;rotatable=0;points=[[0,0.5],[1,0.5]];portConstraint=eastwest;rounded=0;shadow=0;html=0;" parent="xuiZTR2rbnCRRH94C7Y4-0" vertex="1"><mxGeometry y="30" width="520" height="26" as="geometry"/></mxCell><mxCell id="xuiZTR2rbnCRRH94C7Y4-1" value="# recipient : String" style="text;align=left;verticalAlign=top;spacingLeft=4;spacingRight=4;overflow=hidden;rotatable=0;points=[[0,0.5],[1,0.5]];portConstraint=eastwest;" parent="xuiZTR2rbnCRRH94C7Y4-0" vertex="1"><mxGeometry y="56" width="520" height="26" as="geometry"/></mxCell><mxCell id="xuiZTR2rbnCRRH94C7Y4-3" value="" style="line;html=1;strokeWidth=1;align=left;verticalAlign=middle;spacingTop=-1;spacingLeft=3;spacingRight=3;rotatable=0;labelPosition=right;points=[];portConstraint=eastwest;" parent="xuiZTR2rbnCRRH94C7Y4-0" vertex="1"><mxGeometry y="82" width="520" height="8" as="geometry"/></mxCell><mxCell id="xuiZTR2rbnCRRH94C7Y4-4" value="+ Transfer(date : String, description : String, amount : double)" style="text;align=left;verticalAlign=top;spacingLeft=4;spacingRight=4;overflow=hidden;rotatable=0;points=[[0,0.5],[1,0.5]];portConstraint=eastwest;fontStyle=0" parent="xuiZTR2rbnCRRH94C7Y4-0" vertex="1"><mxGeometry y="90" width="520" height="26" as="geometry"/></mxCell><mxCell id="xuiZTR2rbnCRRH94C7Y4-5" value="+ Transfer(date : String, description : String, amount : double, sender: String, recipient : String)" style="text;align=left;verticalAlign=top;spacingLeft=4;spacingRight=4;overflow=hidden;rotatable=0;points=[[0,0.5],[1,0.5]];portConstraint=eastwest;" parent="xuiZTR2rbnCRRH94C7Y4-0" vertex="1"><mxGeometry y="116" width="520" height="26" as="geometry"/></mxCell><mxCell id="xuiZTR2rbnCRRH94C7Y4-53" value="+ Transfer(p : Transfer)" style="text;align=left;verticalAlign=top;spacingLeft=4;spacingRight=4;overflow=hidden;rotatable=0;points=[[0,0.5],[1,0.5]];portConstraint=eastwest;fontStyle=0" parent="xuiZTR2rbnCRRH94C7Y4-0" vertex="1"><mxGeometry y="142" width="520" height="26" as="geometry"/></mxCell><mxCell id="xuiZTR2rbnCRRH94C7Y4-54" value="+ setSender(sender : String) : void" style="text;align=left;verticalAlign=top;spacingLeft=4;spacingRight=4;overflow=hidden;rotatable=0;points=[[0,0.5],[1,0.5]];portConstraint=eastwest;fontStyle=0" parent="xuiZTR2rbnCRRH94C7Y4-0" vertex="1"><mxGeometry y="168" width="520" height="26" as="geometry"/></mxCell><mxCell id="xuiZTR2rbnCRRH94C7Y4-55" value="+ getSender() : String" style="text;align=left;verticalAlign=top;spacingLeft=4;spacingRight=4;overflow=hidden;rotatable=0;points=[[0,0.5],[1,0.5]];portConstraint=eastwest;fontStyle=0" parent="xuiZTR2rbnCRRH94C7Y4-0" vertex="1"><mxGeometry y="194" width="520" height="26" as="geometry"/></mxCell><mxCell id="xuiZTR2rbnCRRH94C7Y4-56" value="+ setRecipient(recipient : String) : void" style="text;align=left;verticalAlign=top;spacingLeft=4;spacingRight=4;overflow=hidden;rotatable=0;points=[[0,0.5],[1,0.5]];portConstraint=eastwest;fontStyle=0" parent="xuiZTR2rbnCRRH94C7Y4-0" vertex="1"><mxGeometry y="220" width="520" height="26" as="geometry"/></mxCell><mxCell id="xuiZTR2rbnCRRH94C7Y4-57" value="+ getRecipient() : String" style="text;align=left;verticalAlign=top;spacingLeft=4;spacingRight=4;overflow=hidden;rotatable=0;points=[[0,0.5],[1,0.5]];portConstraint=eastwest;fontStyle=0" parent="xuiZTR2rbnCRRH94C7Y4-0" vertex="1"><mxGeometry y="246" width="520" height="26" as="geometry"/></mxCell><mxCell id="xuiZTR2rbnCRRH94C7Y4-58" value="+toString() : String" style="text;align=left;verticalAlign=top;spacingLeft=4;spacingRight=4;overflow=hidden;rotatable=0;points=[[0,0.5],[1,0.5]];portConstraint=eastwest;fontStyle=0" parent="xuiZTR2rbnCRRH94C7Y4-0" vertex="1"><mxGeometry y="272" width="520" height="26" as="geometry"/></mxCell><mxCell id="xuiZTR2rbnCRRH94C7Y4-59" value="+ equals(obj : Object) : boolean" style="text;align=left;verticalAlign=top;spacingLeft=4;spacingRight=4;overflow=hidden;rotatable=0;points=[[0,0.5],[1,0.5]];portConstraint=eastwest;fontStyle=0" parent="xuiZTR2rbnCRRH94C7Y4-0" vertex="1"><mxGeometry y="298" width="520" height="26" as="geometry"/></mxCell><mxCell id="xuiZTR2rbnCRRH94C7Y4-60" value="+ calculate() : double" style="text;align=left;verticalAlign=top;spacingLeft=4;spacingRight=4;overflow=hidden;rotatable=0;points=[[0,0.5],[1,0.5]];portConstraint=eastwest;fontStyle=0" parent="xuiZTR2rbnCRRH94C7Y4-0" vertex="1"><mxGeometry y="324" width="520" height="26" as="geometry"/></mxCell><mxCell id="xuiZTR2rbnCRRH94C7Y4-34" value="«interface»&#10;CalculateBill" style="swimlane;fontStyle=0;align=center;verticalAlign=top;childLayout=stackLayout;horizontal=1;startSize=40;horizontalStack=0;resizeParent=1;resizeLast=0;collapsible=1;marginBottom=0;rounded=0;shadow=0;strokeWidth=1;" parent="WIyWlLk6GJQsqaUBKTNV-1" vertex="1"><mxGeometry x="-140" y="129" width="160" height="71" as="geometry"><mxRectangle x="130" y="380" width="160" height="26" as="alternateBounds"/></mxGeometry></mxCell><mxCell id="xuiZTR2rbnCRRH94C7Y4-35" value="calculate() : double" style="text;align=left;verticalAlign=top;spacingLeft=4;spacingRight=4;overflow=hidden;rotatable=0;points=[[0,0.5],[1,0.5]];portConstraint=eastwest;" parent="xuiZTR2rbnCRRH94C7Y4-34" vertex="1"><mxGeometry y="40" width="160" height="26" as="geometry"/></mxCell><mxCell id="0" value="Exception" style="swimlane;fontStyle=0;align=center;verticalAlign=top;childLayout=stackLayout;horizontal=1;startSize=30;horizontalStack=0;resizeParent=1;resizeLast=0;collapsible=1;marginBottom=0;rounded=0;shadow=0;strokeWidth=1;" parent="WIyWlLk6GJQsqaUBKTNV-1" vertex="1"><mxGeometry x="1190" y="20" width="240" height="70" as="geometry"><mxRectangle x="130" y="380" width="160" height="26" as="alternateBounds"/></mxGeometry></mxCell><mxCell id="83" value="..." style="text;html=1;align=center;verticalAlign=middle;resizable=0;points=[];autosize=1;strokeColor=none;" parent="0" vertex="1"><mxGeometry y="30" width="240" height="20" as="geometry"/></mxCell><mxCell id="14" value="IncomingTransfer" style="swimlane;fontStyle=0;align=center;verticalAlign=top;childLayout=stackLayout;horizontal=1;startSize=30;horizontalStack=0;resizeParent=1;resizeLast=0;collapsible=1;marginBottom=0;rounded=0;shadow=0;strokeWidth=1;" parent="WIyWlLk6GJQsqaUBKTNV-1" vertex="1"><mxGeometry x="760" y="920" width="560" height="290" as="geometry"><mxRectangle x="130" y="380" width="160" height="26" as="alternateBounds"/></mxGeometry></mxCell><mxCell id="18" value="+IncomingTransfer(date : String, description : String, amount : double)" style="text;align=left;verticalAlign=top;spacingLeft=4;spacingRight=4;overflow=hidden;rotatable=0;points=[[0,0.5],[1,0.5]];portConstraint=eastwest;fontStyle=0" parent="14" vertex="1"><mxGeometry y="30" width="560" height="26" as="geometry"/></mxCell><mxCell id="19" value="+IncomingTransfer(date : String, description : String, amount : double, sender: String, recipient : String)" style="text;align=left;verticalAlign=top;spacingLeft=4;spacingRight=4;overflow=hidden;rotatable=0;points=[[0,0.5],[1,0.5]];portConstraint=eastwest;" parent="14" vertex="1"><mxGeometry y="56" width="560" height="26" as="geometry"/></mxCell><mxCell id="20" value="+IncomingTransfer(p : Transfer)" style="text;align=left;verticalAlign=top;spacingLeft=4;spacingRight=4;overflow=hidden;rotatable=0;points=[[0,0.5],[1,0.5]];portConstraint=eastwest;fontStyle=0" parent="14" vertex="1"><mxGeometry y="82" width="560" height="26" as="geometry"/></mxCell><mxCell id="21" value="+ setSender(sender : String) : void" style="text;align=left;verticalAlign=top;spacingLeft=4;spacingRight=4;overflow=hidden;rotatable=0;points=[[0,0.5],[1,0.5]];portConstraint=eastwest;fontStyle=0" parent="14" vertex="1"><mxGeometry y="108" width="560" height="26" as="geometry"/></mxCell><mxCell id="22" value="+ getSender() : String" style="text;align=left;verticalAlign=top;spacingLeft=4;spacingRight=4;overflow=hidden;rotatable=0;points=[[0,0.5],[1,0.5]];portConstraint=eastwest;fontStyle=0" parent="14" vertex="1"><mxGeometry y="134" width="560" height="26" as="geometry"/></mxCell><mxCell id="23" value="+ setRecipient(recipient : String) : void" style="text;align=left;verticalAlign=top;spacingLeft=4;spacingRight=4;overflow=hidden;rotatable=0;points=[[0,0.5],[1,0.5]];portConstraint=eastwest;fontStyle=0" parent="14" vertex="1"><mxGeometry y="160" width="560" height="26" as="geometry"/></mxCell><mxCell id="24" value="+ getRecipient() : String" style="text;align=left;verticalAlign=top;spacingLeft=4;spacingRight=4;overflow=hidden;rotatable=0;points=[[0,0.5],[1,0.5]];portConstraint=eastwest;fontStyle=0" parent="14" vertex="1"><mxGeometry y="186" width="560" height="26" as="geometry"/></mxCell><mxCell id="25" value="+toString() : String" style="text;align=left;verticalAlign=top;spacingLeft=4;spacingRight=4;overflow=hidden;rotatable=0;points=[[0,0.5],[1,0.5]];portConstraint=eastwest;fontStyle=0" parent="14" vertex="1"><mxGeometry y="212" width="560" height="26" as="geometry"/></mxCell><mxCell id="26" value="+ equals(obj : Object) : boolean" style="text;align=left;verticalAlign=top;spacingLeft=4;spacingRight=4;overflow=hidden;rotatable=0;points=[[0,0.5],[1,0.5]];portConstraint=eastwest;fontStyle=0" parent="14" vertex="1"><mxGeometry y="238" width="560" height="26" as="geometry"/></mxCell><mxCell id="27" value="+ calculate() : double" style="text;align=left;verticalAlign=top;spacingLeft=4;spacingRight=4;overflow=hidden;rotatable=0;points=[[0,0.5],[1,0.5]];portConstraint=eastwest;fontStyle=0" parent="14" vertex="1"><mxGeometry y="264" width="560" height="26" as="geometry"/></mxCell><mxCell id="28" value="OutgoingTransfer" style="swimlane;fontStyle=0;align=center;verticalAlign=top;childLayout=stackLayout;horizontal=1;startSize=30;horizontalStack=0;resizeParent=1;resizeLast=0;collapsible=1;marginBottom=0;rounded=0;shadow=0;strokeWidth=1;" parent="WIyWlLk6GJQsqaUBKTNV-1" vertex="1"><mxGeometry x="180" y="920" width="560" height="290" as="geometry"><mxRectangle x="130" y="380" width="160" height="26" as="alternateBounds"/></mxGeometry></mxCell><mxCell id="32" value="+OutgoingTransfer(date : String, description : String, amount : double)" style="text;align=left;verticalAlign=top;spacingLeft=4;spacingRight=4;overflow=hidden;rotatable=0;points=[[0,0.5],[1,0.5]];portConstraint=eastwest;fontStyle=0" parent="28" vertex="1"><mxGeometry y="30" width="560" height="26" as="geometry"/></mxCell><mxCell id="33" value="+OutgoingTransfer(date : String, description : String, amount : double, sender: String, recipient : String)" style="text;align=left;verticalAlign=top;spacingLeft=4;spacingRight=4;overflow=hidden;rotatable=0;points=[[0,0.5],[1,0.5]];portConstraint=eastwest;" parent="28" vertex="1"><mxGeometry y="56" width="560" height="26" as="geometry"/></mxCell><mxCell id="34" value="+OutgoingTransfer(p : Transfer)" style="text;align=left;verticalAlign=top;spacingLeft=4;spacingRight=4;overflow=hidden;rotatable=0;points=[[0,0.5],[1,0.5]];portConstraint=eastwest;fontStyle=0" parent="28" vertex="1"><mxGeometry y="82" width="560" height="26" as="geometry"/></mxCell><mxCell id="35" value="+ setSender(sender : String) : void" style="text;align=left;verticalAlign=top;spacingLeft=4;spacingRight=4;overflow=hidden;rotatable=0;points=[[0,0.5],[1,0.5]];portConstraint=eastwest;fontStyle=0" parent="28" vertex="1"><mxGeometry y="108" width="560" height="26" as="geometry"/></mxCell><mxCell id="36" value="+ getSender() : String" style="text;align=left;verticalAlign=top;spacingLeft=4;spacingRight=4;overflow=hidden;rotatable=0;points=[[0,0.5],[1,0.5]];portConstraint=eastwest;fontStyle=0" parent="28" vertex="1"><mxGeometry y="134" width="560" height="26" as="geometry"/></mxCell><mxCell id="37" value="+ setRecipient(recipient : String) : void" style="text;align=left;verticalAlign=top;spacingLeft=4;spacingRight=4;overflow=hidden;rotatable=0;points=[[0,0.5],[1,0.5]];portConstraint=eastwest;fontStyle=0" parent="28" vertex="1"><mxGeometry y="160" width="560" height="26" as="geometry"/></mxCell><mxCell id="38" value="+ getRecipient() : String" style="text;align=left;verticalAlign=top;spacingLeft=4;spacingRight=4;overflow=hidden;rotatable=0;points=[[0,0.5],[1,0.5]];portConstraint=eastwest;fontStyle=0" parent="28" vertex="1"><mxGeometry y="186" width="560" height="26" as="geometry"/></mxCell><mxCell id="39" value="+toString() : String" style="text;align=left;verticalAlign=top;spacingLeft=4;spacingRight=4;overflow=hidden;rotatable=0;points=[[0,0.5],[1,0.5]];portConstraint=eastwest;fontStyle=0" parent="28" vertex="1"><mxGeometry y="212" width="560" height="26" as="geometry"/></mxCell><mxCell id="40" value="+ equals(obj : Object) : boolean" style="text;align=left;verticalAlign=top;spacingLeft=4;spacingRight=4;overflow=hidden;rotatable=0;points=[[0,0.5],[1,0.5]];portConstraint=eastwest;fontStyle=0" parent="28" vertex="1"><mxGeometry y="238" width="560" height="26" as="geometry"/></mxCell><mxCell id="41" value="+ calculate() : double" style="text;align=left;verticalAlign=top;spacingLeft=4;spacingRight=4;overflow=hidden;rotatable=0;points=[[0,0.5],[1,0.5]];portConstraint=eastwest;fontStyle=0" parent="28" vertex="1"><mxGeometry y="264" width="560" height="26" as="geometry"/></mxCell><mxCell id="42" value="PrivateBank&#10;" style="swimlane;fontStyle=0;align=center;verticalAlign=top;childLayout=stackLayout;horizontal=1;startSize=30;horizontalStack=0;resizeParent=1;resizeLast=0;collapsible=1;marginBottom=0;rounded=0;shadow=0;strokeWidth=1;" parent="WIyWlLk6GJQsqaUBKTNV-1" vertex="1"><mxGeometry x="-760" y="360" width="520" height="590" as="geometry"><mxRectangle x="130" y="380" width="160" height="26" as="alternateBounds"/></mxGeometry></mxCell><mxCell id="43" value="+ name : String" style="text;align=left;verticalAlign=top;spacingLeft=4;spacingRight=4;overflow=hidden;rotatable=0;points=[[0,0.5],[1,0.5]];portConstraint=eastwest;rounded=0;shadow=0;html=0;" parent="42" vertex="1"><mxGeometry y="30" width="520" height="26" as="geometry"/></mxCell><mxCell id="44" value="+ incomingInterest : double" style="text;align=left;verticalAlign=top;spacingLeft=4;spacingRight=4;overflow=hidden;rotatable=0;points=[[0,0.5],[1,0.5]];portConstraint=eastwest;" parent="42" vertex="1"><mxGeometry y="56" width="520" height="26" as="geometry"/></mxCell><mxCell id="46" value="+ outgoingInterest : double" style="text;align=left;verticalAlign=top;spacingLeft=4;spacingRight=4;overflow=hidden;rotatable=0;points=[[0,0.5],[1,0.5]];portConstraint=eastwest;fontStyle=0" parent="42" vertex="1"><mxGeometry y="82" width="520" height="26" as="geometry"/></mxCell><mxCell id="47" value="+ accountsToTransactions : Map&lt;String, List&lt;Transaction&gt;&gt;" style="text;align=left;verticalAlign=top;spacingLeft=4;spacingRight=4;overflow=hidden;rotatable=0;points=[[0,0.5],[1,0.5]];portConstraint=eastwest;" parent="42" vertex="1"><mxGeometry y="108" width="520" height="26" as="geometry"/></mxCell><mxCell id="45" value="" style="line;html=1;strokeWidth=1;align=left;verticalAlign=middle;spacingTop=-1;spacingLeft=3;spacingRight=3;rotatable=0;labelPosition=right;points=[];portConstraint=eastwest;" parent="42" vertex="1"><mxGeometry y="134" width="520" height="12" as="geometry"/></mxCell><mxCell id="49" value="+ PrivateBank(name : String, incomingInterest : double, outgoingInterest : double)" style="text;align=left;verticalAlign=top;spacingLeft=4;spacingRight=4;overflow=hidden;rotatable=0;points=[[0,0.5],[1,0.5]];portConstraint=eastwest;fontStyle=0" parent="42" vertex="1"><mxGeometry y="146" width="520" height="26" as="geometry"/></mxCell><mxCell id="50" value="+ PrivateBank(p : PrivateBank)" style="text;align=left;verticalAlign=top;spacingLeft=4;spacingRight=4;overflow=hidden;rotatable=0;points=[[0,0.5],[1,0.5]];portConstraint=eastwest;fontStyle=0" parent="42" vertex="1"><mxGeometry y="172" width="520" height="26" as="geometry"/></mxCell><mxCell id="51" value="+ setName(name : String) : void" style="text;align=left;verticalAlign=top;spacingLeft=4;spacingRight=4;overflow=hidden;rotatable=0;points=[[0,0.5],[1,0.5]];portConstraint=eastwest;fontStyle=0" parent="42" vertex="1"><mxGeometry y="198" width="520" height="26" as="geometry"/></mxCell><mxCell id="52" value="+ getName() : String" style="text;align=left;verticalAlign=top;spacingLeft=4;spacingRight=4;overflow=hidden;rotatable=0;points=[[0,0.5],[1,0.5]];portConstraint=eastwest;fontStyle=0" parent="42" vertex="1"><mxGeometry y="224" width="520" height="26" as="geometry"/></mxCell><mxCell id="91" value="+ setIncomingInterest(incomingInterest : double) : void" style="text;align=left;verticalAlign=top;spacingLeft=4;spacingRight=4;overflow=hidden;rotatable=0;points=[[0,0.5],[1,0.5]];portConstraint=eastwest;fontStyle=0" parent="42" vertex="1"><mxGeometry y="250" width="520" height="26" as="geometry"/></mxCell><mxCell id="92" value="+ getIncomingInterest() : double" style="text;align=left;verticalAlign=top;spacingLeft=4;spacingRight=4;overflow=hidden;rotatable=0;points=[[0,0.5],[1,0.5]];portConstraint=eastwest;fontStyle=0" parent="42" vertex="1"><mxGeometry y="276" width="520" height="26" as="geometry"/></mxCell><mxCell id="94" value="+ setOutgoingInterest(outgoingInterest: double) : void" style="text;align=left;verticalAlign=top;spacingLeft=4;spacingRight=4;overflow=hidden;rotatable=0;points=[[0,0.5],[1,0.5]];portConstraint=eastwest;fontStyle=0" parent="42" vertex="1"><mxGeometry y="302" width="520" height="26" as="geometry"/></mxCell><mxCell id="93" value="+ getOutgoingInterest() : double" style="text;align=left;verticalAlign=top;spacingLeft=4;spacingRight=4;overflow=hidden;rotatable=0;points=[[0,0.5],[1,0.5]];portConstraint=eastwest;fontStyle=0" parent="42" vertex="1"><mxGeometry y="328" width="520" height="26" as="geometry"/></mxCell><mxCell id="54" value="+ equals(obj : Object) : boolean" style="text;align=left;verticalAlign=top;spacingLeft=4;spacingRight=4;overflow=hidden;rotatable=0;points=[[0,0.5],[1,0.5]];portConstraint=eastwest;fontStyle=0" parent="42" vertex="1"><mxGeometry y="354" width="520" height="26" as="geometry"/></mxCell><mxCell id="53" value="+toString() : String" style="text;align=left;verticalAlign=top;spacingLeft=4;spacingRight=4;overflow=hidden;rotatable=0;points=[[0,0.5],[1,0.5]];portConstraint=eastwest;fontStyle=0" parent="42" vertex="1"><mxGeometry y="380" width="520" height="26" as="geometry"/></mxCell><mxCell id="103" value="+getTransactionsByType(account String, positive Boolean) : List&amp;lt;Transaction&amp;gt;" style="text;html=1;strokeColor=none;fillColor=none;align=left;verticalAlign=middle;whiteSpace=wrap;rounded=0;sketch=1;" parent="42" vertex="1"><mxGeometry y="406" width="520" height="20" as="geometry"/></mxCell><mxCell id="102" value="+getTransactionsSorted(account String, asc Boolean) : List&amp;lt;Transaction&amp;gt;" style="text;html=1;strokeColor=none;fillColor=none;align=left;verticalAlign=middle;whiteSpace=wrap;rounded=0;sketch=1;" parent="42" vertex="1"><mxGeometry y="426" width="520" height="20" as="geometry"/></mxCell><mxCell id="101" value="+getTransactions(account String) : List&amp;lt;Transaction&amp;gt;" style="text;html=1;strokeColor=none;fillColor=none;align=left;verticalAlign=middle;whiteSpace=wrap;rounded=0;sketch=1;" parent="42" vertex="1"><mxGeometry y="446" width="520" height="20" as="geometry"/></mxCell><mxCell id="100" value="+getAccountBalance(account : String) : double" style="text;html=1;strokeColor=none;fillColor=none;align=left;verticalAlign=middle;whiteSpace=wrap;rounded=0;sketch=1;" parent="42" vertex="1"><mxGeometry y="466" width="520" height="20" as="geometry"/></mxCell><mxCell id="99" value="+containsTransaction(account : String, transaction Transaction) : void" style="text;html=1;strokeColor=none;fillColor=none;align=left;verticalAlign=middle;whiteSpace=wrap;rounded=0;sketch=1;" parent="42" vertex="1"><mxGeometry y="486" width="520" height="20" as="geometry"/></mxCell><mxCell id="98" value="+removeTransaction(account : String, transaction : Transaction) : void" style="text;html=1;strokeColor=none;fillColor=none;align=left;verticalAlign=middle;whiteSpace=wrap;rounded=0;sketch=1;" parent="42" vertex="1"><mxGeometry y="506" width="520" height="20" as="geometry"/></mxCell><mxCell id="97" value="+addTransaction(account : String, transaction : Transaction) : void" style="text;html=1;strokeColor=none;fillColor=none;align=left;verticalAlign=middle;whiteSpace=wrap;rounded=0;sketch=1;" parent="42" vertex="1"><mxGeometry y="526" width="520" height="20" as="geometry"/></mxCell><mxCell id="96" value="+createAccount(account : String, transactions List&amp;lt;Transaction&amp;gt;) : void" style="text;html=1;strokeColor=none;fillColor=none;align=left;verticalAlign=middle;whiteSpace=wrap;rounded=0;sketch=1;" parent="42" vertex="1"><mxGeometry y="546" width="520" height="20" as="geometry"/></mxCell><mxCell id="95" value="+createAccount(account : String) : void" style="text;html=1;strokeColor=none;fillColor=none;align=left;verticalAlign=middle;whiteSpace=wrap;rounded=0;sketch=1;" parent="42" vertex="1"><mxGeometry y="566" width="520" height="24" as="geometry"/></mxCell><mxCell id="56" value="«interface»&#10;Bank" style="swimlane;fontStyle=0;align=center;verticalAlign=top;childLayout=stackLayout;horizontal=1;startSize=40;horizontalStack=0;resizeParent=1;resizeLast=0;collapsible=1;marginBottom=0;rounded=0;shadow=0;strokeWidth=1;sketch=1;" parent="WIyWlLk6GJQsqaUBKTNV-1" vertex="1"><mxGeometry x="-710" y="1050" width="420" height="230" as="geometry"><mxRectangle x="130" y="380" width="160" height="26" as="alternateBounds"/></mxGeometry></mxCell><mxCell id="58" value="createAccount(account : String) : void" style="text;html=1;strokeColor=none;fillColor=none;align=left;verticalAlign=middle;whiteSpace=wrap;rounded=0;sketch=1;" parent="56" vertex="1"><mxGeometry y="40" width="420" height="20" as="geometry"/></mxCell><mxCell id="59" value="createAccount(account : String, transactions List&amp;lt;Transaction&amp;gt;) : void" style="text;html=1;strokeColor=none;fillColor=none;align=left;verticalAlign=middle;whiteSpace=wrap;rounded=0;sketch=1;" parent="56" vertex="1"><mxGeometry y="60" width="420" height="20" as="geometry"/></mxCell><mxCell id="60" value="addTransaction(account : String, transaction : Transaction) : void" style="text;html=1;strokeColor=none;fillColor=none;align=left;verticalAlign=middle;whiteSpace=wrap;rounded=0;sketch=1;" parent="56" vertex="1"><mxGeometry y="80" width="420" height="20" as="geometry"/></mxCell><mxCell id="61" value="removeTransaction(account : String, transaction : Transaction) : void" style="text;html=1;strokeColor=none;fillColor=none;align=left;verticalAlign=middle;whiteSpace=wrap;rounded=0;sketch=1;" parent="56" vertex="1"><mxGeometry y="100" width="420" height="20" as="geometry"/></mxCell><mxCell id="63" value="containsTransaction(account : String, transaction Transaction) : void" style="text;html=1;strokeColor=none;fillColor=none;align=left;verticalAlign=middle;whiteSpace=wrap;rounded=0;sketch=1;" parent="56" vertex="1"><mxGeometry y="120" width="420" height="20" as="geometry"/></mxCell><mxCell id="64" value="getAccountBalance(account : String) : double" style="text;html=1;strokeColor=none;fillColor=none;align=left;verticalAlign=middle;whiteSpace=wrap;rounded=0;sketch=1;" parent="56" vertex="1"><mxGeometry y="140" width="420" height="20" as="geometry"/></mxCell><mxCell id="66" value="getTransactions(account String) : List&amp;lt;Transaction&amp;gt;" style="text;html=1;strokeColor=none;fillColor=none;align=left;verticalAlign=middle;whiteSpace=wrap;rounded=0;sketch=1;" parent="56" vertex="1"><mxGeometry y="160" width="420" height="20" as="geometry"/></mxCell><mxCell id="67" value="getTransactionsSorted(account String, asc Boolean) : List&amp;lt;Transaction&amp;gt;" style="text;html=1;strokeColor=none;fillColor=none;align=left;verticalAlign=middle;whiteSpace=wrap;rounded=0;sketch=1;" parent="56" vertex="1"><mxGeometry y="180" width="420" height="20" as="geometry"/></mxCell><mxCell id="68" value="getTransactionsByType(account String, positive Boolean) : List&amp;lt;Transaction&amp;gt;" style="text;html=1;strokeColor=none;fillColor=none;align=left;verticalAlign=middle;whiteSpace=wrap;rounded=0;sketch=1;" parent="56" vertex="1"><mxGeometry y="200" width="420" height="20" as="geometry"/></mxCell><mxCell id="73" style="edgeStyle=orthogonalEdgeStyle;rounded=0;orthogonalLoop=1;jettySize=auto;html=1;exitX=0.5;exitY=0;exitDx=0;exitDy=0;entryX=0.5;entryY=1;entryDx=0;entryDy=0;" parent="WIyWlLk6GJQsqaUBKTNV-1" source="69" target="0" edge="1"><mxGeometry relative="1" as="geometry"/></mxCell><mxCell id="69" value="AccountDoesNotExistException" style="swimlane;fontStyle=0;align=center;verticalAlign=top;childLayout=stackLayout;horizontal=1;startSize=30;horizontalStack=0;resizeParent=1;resizeLast=0;collapsible=1;marginBottom=0;rounded=0;shadow=0;strokeWidth=1;" parent="WIyWlLk6GJQsqaUBKTNV-1" vertex="1"><mxGeometry x="690" y="170" width="290" height="70" as="geometry"><mxRectangle x="130" y="380" width="160" height="26" as="alternateBounds"/></mxGeometry></mxCell><mxCell id="78" value="&lt;span style=&quot;text-align: center&quot;&gt;+AccountDoesNotExistException(ausgabe : String)&lt;/span&gt;" style="text;html=1;align=left;verticalAlign=middle;resizable=0;points=[];autosize=1;strokeColor=none;" parent="69" vertex="1"><mxGeometry y="30" width="290" height="20" as="geometry"/></mxCell><mxCell id="70" value="AccountAlreadyExistsException" style="swimlane;fontStyle=0;align=center;verticalAlign=top;childLayout=stackLayout;horizontal=1;startSize=30;horizontalStack=0;resizeParent=1;resizeLast=0;collapsible=1;marginBottom=0;rounded=0;shadow=0;strokeWidth=1;" parent="WIyWlLk6GJQsqaUBKTNV-1" vertex="1"><mxGeometry x="1000" y="170" width="290" height="70" as="geometry"><mxRectangle x="130" y="380" width="160" height="26" as="alternateBounds"/></mxGeometry></mxCell><mxCell id="79" value="&lt;span style=&quot;text-align: center&quot;&gt;+&lt;/span&gt;&lt;span style=&quot;text-align: center&quot;&gt;AccountAlreadyExistsException&lt;/span&gt;&lt;span style=&quot;text-align: center&quot;&gt;(ausgabe : String)&lt;/span&gt;" style="text;html=1;align=left;verticalAlign=middle;resizable=0;points=[];autosize=1;strokeColor=none;" parent="70" vertex="1"><mxGeometry y="30" width="290" height="20" as="geometry"/></mxCell><mxCell id="71" value="TransactionAlreadyExistException" style="swimlane;fontStyle=0;align=center;verticalAlign=top;childLayout=stackLayout;horizontal=1;startSize=30;horizontalStack=0;resizeParent=1;resizeLast=0;collapsible=1;marginBottom=0;rounded=0;shadow=0;strokeWidth=1;" parent="WIyWlLk6GJQsqaUBKTNV-1" vertex="1"><mxGeometry x="1300" y="170" width="300" height="70" as="geometry"><mxRectangle x="130" y="380" width="160" height="26" as="alternateBounds"/></mxGeometry></mxCell><mxCell id="80" value="&lt;span style=&quot;text-align: center&quot;&gt;+&lt;/span&gt;&lt;span style=&quot;text-align: center&quot;&gt;TransactionAlreadyExistException&lt;/span&gt;&lt;span style=&quot;text-align: center&quot;&gt;(ausgabe : String)&lt;/span&gt;" style="text;html=1;align=left;verticalAlign=middle;resizable=0;points=[];autosize=1;strokeColor=none;" parent="71" vertex="1"><mxGeometry y="30" width="300" height="20" as="geometry"/></mxCell><mxCell id="74" style="edgeStyle=orthogonalEdgeStyle;rounded=0;orthogonalLoop=1;jettySize=auto;html=1;exitX=0.5;exitY=0;exitDx=0;exitDy=0;" parent="WIyWlLk6GJQsqaUBKTNV-1" source="72" edge="1"><mxGeometry relative="1" as="geometry"><mxPoint x="1310" y="90" as="targetPoint"/></mxGeometry></mxCell><mxCell id="72" value="TransactionDoesNotExistException" style="swimlane;fontStyle=0;align=center;verticalAlign=top;childLayout=stackLayout;horizontal=1;startSize=30;horizontalStack=0;resizeParent=1;resizeLast=0;collapsible=1;marginBottom=0;rounded=0;shadow=0;strokeWidth=1;" parent="WIyWlLk6GJQsqaUBKTNV-1" vertex="1"><mxGeometry x="1614" y="170" width="296" height="70" as="geometry"><mxRectangle x="130" y="380" width="160" height="26" as="alternateBounds"/></mxGeometry></mxCell><mxCell id="75" value="" style="endArrow=none;html=1;exitX=0.5;exitY=0;exitDx=0;exitDy=0;" parent="WIyWlLk6GJQsqaUBKTNV-1" source="70" edge="1"><mxGeometry width="50" height="50" relative="1" as="geometry"><mxPoint x="1450" y="100" as="sourcePoint"/><mxPoint x="1145" y="130" as="targetPoint"/></mxGeometry></mxCell><mxCell id="77" value="" style="endArrow=none;html=1;exitX=0.5;exitY=0;exitDx=0;exitDy=0;" parent="WIyWlLk6GJQsqaUBKTNV-1" source="71" edge="1"><mxGeometry width="50" height="50" relative="1" as="geometry"><mxPoint x="1460" y="110" as="sourcePoint"/><mxPoint x="1450" y="130" as="targetPoint"/></mxGeometry></mxCell><mxCell id="81" value="&lt;span style=&quot;text-align: center&quot;&gt;+&lt;/span&gt;&lt;span style=&quot;text-align: center&quot;&gt;TransactionDoesNotExistException&lt;/span&gt;&lt;span style=&quot;text-align: center&quot;&gt;(ausgabe : String)&lt;/span&gt;" style="text;html=1;align=left;verticalAlign=middle;resizable=0;points=[];autosize=1;strokeColor=none;" parent="WIyWlLk6GJQsqaUBKTNV-1" vertex="1"><mxGeometry x="1614" y="200" width="310" height="20" as="geometry"/></mxCell><mxCell id="88" value="" style="endArrow=block;endSize=10;endFill=0;shadow=0;strokeWidth=1;rounded=0;edgeStyle=elbowEdgeStyle;elbow=vertical;exitX=0.75;exitY=0;exitDx=0;exitDy=0;entryX=0.077;entryY=1;entryDx=0;entryDy=0;entryPerimeter=0;" parent="WIyWlLk6GJQsqaUBKTNV-1" source="28" target="xuiZTR2rbnCRRH94C7Y4-60" edge="1"><mxGeometry width="160" relative="1" as="geometry"><mxPoint x="1429.9999999999995" y="690" as="sourcePoint"/><mxPoint x="620" y="750" as="targetPoint"/><Array as="points"><mxPoint x="600" y="750"/><mxPoint x="590" y="820"/><mxPoint x="920" y="620"/></Array></mxGeometry></mxCell><mxCell id="89" value="" style="endArrow=block;endSize=10;endFill=0;shadow=0;strokeWidth=1;rounded=0;edgeStyle=elbowEdgeStyle;elbow=vertical;exitX=0.5;exitY=0;exitDx=0;exitDy=0;" parent="WIyWlLk6GJQsqaUBKTNV-1" source="14" edge="1"><mxGeometry width="160" relative="1" as="geometry"><mxPoint x="1209.9999999999995" y="850" as="sourcePoint"/><mxPoint x="1040" y="713" as="targetPoint"/><Array as="points"><mxPoint x="1020" y="760"/><mxPoint x="700" y="780"/><mxPoint x="700" y="780"/></Array></mxGeometry></mxCell><mxCell id="104" value="" style="endArrow=block;dashed=1;endFill=0;endSize=12;html=1;rounded=0;edgeStyle=orthogonalEdgeStyle;exitX=0.5;exitY=1;exitDx=0;exitDy=0;entryX=0.5;entryY=0;entryDx=0;entryDy=0;" parent="WIyWlLk6GJQsqaUBKTNV-1" source="95" target="56" edge="1"><mxGeometry width="160" relative="1" as="geometry"><mxPoint x="-420.0000000000002" y="1060" as="sourcePoint"/><mxPoint x="-420.0000000000002" y="960" as="targetPoint"/><Array as="points"><mxPoint x="-500" y="1000"/><mxPoint x="-500" y="1000"/></Array></mxGeometry></mxCell><mxCell id="105" value="" style="endArrow=block;dashed=1;endFill=0;endSize=12;html=1;rounded=0;edgeStyle=orthogonalEdgeStyle;exitX=0;exitY=0.5;exitDx=0;exitDy=0;entryX=1;entryY=0.25;entryDx=0;entryDy=0;" parent="WIyWlLk6GJQsqaUBKTNV-1" source="xuiZTR2rbnCRRH94C7Y4-8" target="xuiZTR2rbnCRRH94C7Y4-34" edge="1"><mxGeometry width="160" relative="1" as="geometry"><mxPoint x="-200" y="129.99999999999977" as="sourcePoint"/><mxPoint x="-200" y="230" as="targetPoint"/><Array as="points"><mxPoint x="150" y="147"/></Array></mxGeometry></mxCell><mxCell id="228" style="edgeStyle=orthogonalEdgeStyle;rounded=0;orthogonalLoop=1;jettySize=auto;html=1;exitX=0.5;exitY=0;exitDx=0;exitDy=0;entryX=0.5;entryY=1;entryDx=0;entryDy=0;" edge="1" parent="WIyWlLk6GJQsqaUBKTNV-1" source="227" target="0"><mxGeometry relative="1" as="geometry"/></mxCell><mxCell id="227" value="TransactionAttributeException" style="swimlane;fontStyle=0;align=center;verticalAlign=top;childLayout=stackLayout;horizontal=1;startSize=30;horizontalStack=0;resizeParent=1;resizeLast=0;collapsible=1;marginBottom=0;rounded=0;shadow=0;strokeWidth=1;" vertex="1" parent="WIyWlLk6GJQsqaUBKTNV-1"><mxGeometry x="1940" y="170" width="350" height="70" as="geometry"><mxRectangle x="130" y="380" width="160" height="26" as="alternateBounds"/></mxGeometry></mxCell><mxCell id="230" value="&lt;span style=&quot;text-align: center&quot;&gt;+&lt;/span&gt;&lt;span style=&quot;background-color: rgb(43 , 43 , 43)&quot;&gt;&lt;font color=&quot;#e0e0e0&quot;&gt;TransactionAttributeException&lt;/font&gt;&lt;/span&gt;&lt;span style=&quot;text-align: center&quot;&gt;(ausgabe : String)&lt;/span&gt;" style="text;html=1;align=left;verticalAlign=middle;resizable=0;points=[];autosize=1;strokeColor=none;" vertex="1" parent="227"><mxGeometry y="30" width="350" height="20" as="geometry"/></mxCell></root></mxGraphModel></diagram></mxfile>